<svg width="56" height="56" viewBox="0 0 56 56" fill="none" xmlns="http://www.w3.org/2000/svg">
<circle cx="28" cy="28" r="28" fill="white"/>
<circle cx="28" cy="28" r="23.5" fill="#FFCF54" stroke="black" stroke-width="3"/>
<path d="M17.4998 36.0005C19.6944 39.5984 23.6562 42.0005 28.179 42.0005C32.7018 42.0005 36.6635 39.5984 38.8582 36.0005" stroke="black" stroke-width="3"/>
<path d="M21.5 21.5005C21.5 22.9766 21.2816 24.2912 20.9443 25.2187C20.7749 25.6845 20.585 26.0263 20.3993 26.2423C20.2123 26.4599 20.0756 26.5005 20 26.5005C19.9244 26.5005 19.7877 26.4599 19.6007 26.2423C19.415 26.0263 19.2251 25.6845 19.0557 25.2187C18.7184 24.2912 18.5 22.9766 18.5 21.5005C18.5 20.0243 18.7184 18.7098 19.0557 17.7823C19.2251 17.3164 19.415 16.9747 19.6007 16.7587C19.7877 16.5411 19.9244 16.5005 20 16.5005C20.0756 16.5005 20.2123 16.5411 20.3993 16.7587C20.585 16.9747 20.7749 17.3164 20.9443 17.7823C21.2816 18.7098 21.5 20.0243 21.5 21.5005Z" fill="black" stroke="black"/>
<path d="M36.5 21.5005C36.5 22.9766 36.2816 24.2912 35.9443 25.2187C35.7749 25.6845 35.585 26.0263 35.3993 26.2423C35.2123 26.4599 35.0756 26.5005 35 26.5005C34.9244 26.5005 34.7877 26.4599 34.6007 26.2423C34.415 26.0263 34.2251 25.6845 34.0557 25.2187C33.7184 24.2912 33.5 22.9766 33.5 21.5005C33.5 20.0243 33.7184 18.7098 34.0557 17.7823C34.2251 17.3164 34.415 16.9747 34.6007 16.7587C34.7877 16.5411 34.9244 16.5005 35 16.5005C35.0756 16.5005 35.2123 16.5411 35.3993 16.7587C35.585 16.9747 35.7749 17.3164 35.9443 17.7823C36.2816 18.7098 36.5 20.0243 36.5 21.5005Z" fill="black" stroke="black"/>
</svg>
